<?xml version="1.0" encoding="utf-8"?>
<!-- Generator: Adobe Illustrator 24.1.2, SVG Export Plug-In . SVG Version: 6.00 Build 0)  -->
<svg version="1.1" id="Layer_1" xmlns="http://www.w3.org/2000/svg" xmlns:xlink="http://www.w3.org/1999/xlink" x="0px" y="0px"
	 viewBox="0 0 213.3 214.1" style="enable-background:new 0 0 213.3 214.1;" xml:space="preserve">
<style type="text/css">
	.st0{fill:none;stroke:#435363;stroke-width:1.5;stroke-linecap:round;stroke-linejoin:round;stroke-miterlimit:10;}
	.st1{fill:none;stroke:#E24301;stroke-width:1.5;stroke-linecap:round;stroke-linejoin:round;stroke-miterlimit:10;}
</style>
<g>
	<path class="st0" d="M79.6,168.9c8.3,6,17.5,11.9,27.7,17.8c25-14.2,44.2-29.2,58.5-44.2"/>
	<path class="st0" d="M189.7,109.7c24.1-46.8,2.6-85.7-33.6-85.7c-39.7,0-48.8,28.6-48.8,28.6S92.7,24,55.7,24
		c-37.1,0-55.1,38.3-30.5,86.2"/>
	<polyline class="st1" points="0.2,125.3 54.8,125.3 62.2,166.3 77.2,90.5 90.2,157.8 97.3,125.9 119.1,125.9 126.4,94.2 
		133.2,124.4 212.8,124.4 	"/>
</g>
</svg>
