<?xml version="1.0" encoding="utf-8"?>
<!-- Generator: Adobe Illustrator 24.1.2, SVG Export Plug-In . SVG Version: 6.00 Build 0)  -->
<svg version="1.1" id="Layer_1" xmlns="http://www.w3.org/2000/svg" xmlns:xlink="http://www.w3.org/1999/xlink" x="0px" y="0px"
	 viewBox="0 0 213.3 214.1" style="enable-background:new 0 0 213.3 214.1;" xml:space="preserve">
<style type="text/css">
	.st0{fill:none;stroke:#435363;stroke-width:1.5;stroke-linecap:round;stroke-linejoin:round;stroke-miterlimit:10;}
	.st1{fill:none;stroke:#E24301;stroke-width:1.5;stroke-linecap:round;stroke-linejoin:round;stroke-miterlimit:10;}
</style>
<path class="st0" d="M125.4,88.9v27.6l-51.7,70.9c-4.6,5.8-0.4,14.4,7,14.4h115.9c7.1,0,11.3-7.9,7.4-13.8l-52.9-72.2V38.2h-25.7
	L125.4,88.9c-8.8-10.1-21.6-18.7-35.3-22.3V30.9"/>
<path class="st0" d="M80.7,201.8c-40.8,0-68.4-30.7-68.4-68.6c0-32.6,21.2-59.9,49.6-66.8V30.9"/>
<path class="st0" d="M95.5,30.9h-39c-1.8,0-3.2-1.4-3.2-3.2V14.9c0-1.8,1.4-3.2,3.2-3.2h39c1.8,0,3.2,1.4,3.2,3.2v12.7
	C98.7,29.4,97.3,30.9,95.5,30.9z"/>
<path class="st1" d="M76,83.5c0,0-46.7,3.5-46.2,50.4"/>
<line class="st1" x1="144.2" y1="51.1" x2="151.1" y2="51.1"/>
<line class="st1" x1="144.2" y1="65.5" x2="151.1" y2="65.5"/>
<line class="st1" x1="144.2" y1="80" x2="151.1" y2="80"/>
<line class="st1" x1="144.2" y1="94.4" x2="151.1" y2="94.4"/>
<line class="st1" x1="144.2" y1="108.9" x2="151.1" y2="108.9"/>
</svg>
