<?xml version="1.0" encoding="utf-8"?>
<!-- Generator: Adobe Illustrator 24.1.2, SVG Export Plug-In . SVG Version: 6.00 Build 0)  -->
<svg version="1.1" id="Layer_1" xmlns="http://www.w3.org/2000/svg" xmlns:xlink="http://www.w3.org/1999/xlink" x="0px" y="0px"
	 viewBox="0 0 213.3 214.1" style="enable-background:new 0 0 213.3 214.1;" xml:space="preserve">
<style type="text/css">
	.st0{fill:#E24301;}
	.st1{fill:#435363;}
	.st2{fill:none;stroke:#435363;stroke-width:1.5;stroke-linecap:round;stroke-linejoin:round;stroke-miterlimit:10;}
</style>
<g>
	<path class="st0" d="M139,206.3c-0.3-10.1-0.4-20.2-0.9-30.3c-0.1-2.5,0.6-4.3,2.3-6c3.9-3.8,7.6-7.7,11.3-11.5
		c0.4,0.1,0.8,0.2,1.2,0.3c0.6,15.8,1.2,31.6,1.9,47.4C149.7,206.3,144.4,206.3,139,206.3z"/>
	<path class="st0" d="M126.1,206.3c-1.3-9.6-2.7-19.2-3.9-28.9c-0.1-0.7,0-1.6,0.4-2.1c2.3-2.4,4.7-4.8,7.2-7.3
		c1.9,13.1,3.6,25.6,5.4,38.2C132.2,206.3,129.2,206.3,126.1,206.3z"/>
	<path class="st1" d="M51.8,22.3c4.1-4,8.1-7.8,12.2-11.8c0.2,0.1,0.6,0.3,1,0.7c20.9,20,40.9,40.9,59.9,62.8c2.4,2.7,4.5,5.8,6.2,9
		c4.8,8.9,2.5,20.7-5,27.3c-6.8,6-18.2,4.6-22.9-3.1c-1.1-1.8-1-4.6-0.6-6.8c0.5-2.3,1.9-4.4,3.1-6.4c2.6-4.4,2.9-8.9,0.1-13.2
		c-3.9-5.9-7.6-12-12-17.5C82.1,49,68.5,36.5,54.4,24.6C53.5,23.9,52.7,23.1,51.8,22.3z"/>
	<path class="st0" d="M128.6,140.7c0.2,5,0.3,10,0.8,15c0.2,2.3-0.3,3.8-2,5.3c-2,1.8-3.9,3.8-6.3,6.3c-0.6-9.3-1.2-17.9-1.6-26.4
		c-0.1-2.3-0.4-3.7-3.2-4c-2.6-0.3-5.2-1.6-6-4.6c-0.9-3.3,0.4-5.9,2.9-8.1c5.7-4.9,12.5-7.7,20-8.2c9.7-0.6,15.3,4.2,16.9,14.5
		c0.8,5.1,1.1,10.3,1.7,15.4c0.3,2.2-0.4,3.8-2,5.3c-4.2,4-8.2,8.2-12.6,12.7c-1-4.5-1.6-8.6-2.7-12.5
		C133.5,147.5,132.6,143.4,128.6,140.7z"/>
	<path class="st1" d="M137.5,99.6c0.2-5.6-1.4-9.8-3.3-13.9c-0.6-1.3-1-4-0.5-4.3c1.5-1,3.7-1.6,5.5-1.3c1.5,0.2,3.2,1.6,4.1,3
		c3.9,5.8,4.2,12.2,2.3,18.8c-0.8,2.5-2.6,3.7-5.2,3.3c-2.6-0.4-2.9-2.5-2.8-4.6C137.5,99.9,137.5,99.3,137.5,99.6z"/>
	<path class="st2" d="M92.2,5.8c0,0,55.5,49.1,65.8,82.3c5.9,18.8,2.1,28.8,9.7,107.3"/>
	<path class="st2" d="M32.2,66.7c0,0,30.8,17.8,48.5,28.2c15.9,9.3,11.5,23.4,11.5,39.7c0,19.7,4.1,35.6,10.9,60.8"/>
</g>
</svg>
