<?xml version="1.0" encoding="utf-8"?>
<!-- Generator: Adobe Illustrator 24.1.2, SVG Export Plug-In . SVG Version: 6.00 Build 0)  -->
<svg version="1.1" id="Layer_1" xmlns="http://www.w3.org/2000/svg" xmlns:xlink="http://www.w3.org/1999/xlink" x="0px" y="0px"
	 viewBox="0 0 213.3 214.1" style="enable-background:new 0 0 213.3 214.1;" xml:space="preserve">
<style type="text/css">
	.st0{fill:none;stroke:#435363;stroke-width:1.5;stroke-linecap:round;stroke-linejoin:round;stroke-miterlimit:10;}
	.st1{fill:none;stroke:#E24301;stroke-width:1.5;stroke-linecap:round;stroke-linejoin:round;stroke-miterlimit:10;}
</style>
<g>
	<ellipse class="st0" cx="123.4" cy="26.9" rx="10.5" ry="12.5"/>
	<path class="st0" d="M86.1,68.4c15-14.4,18.7-23.7,28.9-23.7s12.8,0,17.8,0c5,0,14.7,4.1,14.7,14.1s0,13.4,0,13.4h-10.8V60.5"/>
	<path class="st0" d="M137.7,75.8c0,1.6,0.4,4-2.4,4s-19.7,0-19.7,0"/>
	<path class="st0" d="M146.6,75.9c0,2.4,0,4.4,0,6.3c0,1.9,0.4,6.3-4.6,6.3c-5,0-26.1,0-26.1,0"/>
	<path class="st0" d="M140,92.4c0,1.5,0.3,17.4,1.5,22.7"/>
	<line class="st0" x1="117.1" y1="101.7" x2="139.9" y2="101.8"/>
	<polyline class="st0" points="108.8,69.9 108.8,61.8 102.1,68.4 	"/>
	<path class="st1" d="M57.8,75.5l-10.4-9.4c-0.7-0.7-1.9,0-1.7,1c0.9,3.6,2.4,9.1,3,11.3c1,3.3,2.2,6,8.7,6"/>
	<path class="st1" d="M88.5,115.8l5.2-27.1l-32.3-4V73.4c0,0,38,0,41.9,0c3.9,0,8.7,1.7,8.7,9.3c0,7.6,0,31.6,0,31.6"/>
	<path class="st0" d="M197.3,145.8H174c-0.1,0-0.2-0.1-0.2-0.2v-4.8c0-0.1,0.1-0.2,0.2-0.2h23.3c0.1,0,0.2,0.1,0.2,0.2v4.8
		C197.5,145.7,197.4,145.8,197.3,145.8z"/>
	<path class="st0" d="M201.9,165.1H6.1c-0.3,0-0.6-0.3-0.6-0.6v-13.3c0-0.3,0.3-0.6,0.6-0.6h195.7c0.3,0,0.6,0.3,0.6,0.6v13.3
		C202.5,164.9,202.2,165.1,201.9,165.1z"/>
	<ellipse class="st0" cx="185.6" cy="125.5" rx="11.9" ry="10"/>
	<path class="st0" d="M74.2,140.3H26.5v-12.9c0,0,73.3-8.8,90.3-8.8c5.4,0,27.5,0,33.5,0s17.1,1.7,17.1,15.7
		c0,12.2-5.4,11.5-10.9,11.5s-62.8,0-67.9,0c-5.1,0-9.8-2.1-9.8-5.2c0-2.9,5.6-4.6,10.9-4.6c2.5,0,62.7,0,62.7,0"/>
	<line class="st0" x1="115.2" y1="118.6" x2="115.2" y2="135.7"/>
	<line class="st0" x1="27.8" y1="165.5" x2="27.8" y2="195.6"/>
	<line class="st0" x1="35" y1="165.5" x2="35" y2="195.6"/>
	<line class="st0" x1="173.7" y1="165.5" x2="173.7" y2="195.6"/>
	<line class="st0" x1="180.9" y1="165.5" x2="180.9" y2="195.6"/>
	<path class="st0" d="M22.3,129l-14.5-1.2c-1.6-0.1-2.3,1.9-1,2.8c4.5,3,10.6,7,11.6,7.4c1.7,0.7,3.9,0.3,3.9,0.3"/>
</g>
</svg>
